<svg width="285" height="45" viewBox="0 0 285 45" fill="none" xmlns="http://www.w3.org/2000/svg">
<path d="M25.1477 27V15.3636H32.6023V17.1307H27.2557V20.2898H32.0909V22.0568H27.2557V27H25.1477ZM37.598 27.1705C36.7457 27.1705 36.0071 26.983 35.3821 26.608C34.7571 26.233 34.2723 25.7083 33.9276 25.0341C33.5866 24.3598 33.4162 23.572 33.4162 22.6705C33.4162 21.7689 33.5866 20.9792 33.9276 20.3011C34.2723 19.6231 34.7571 19.0966 35.3821 18.7216C36.0071 18.3466 36.7457 18.1591 37.598 18.1591C38.4503 18.1591 39.1889 18.3466 39.8139 18.7216C40.4389 19.0966 40.9219 19.6231 41.2628 20.3011C41.6075 20.9792 41.7798 21.7689 41.7798 22.6705C41.7798 23.572 41.6075 24.3598 41.2628 25.0341C40.9219 25.7083 40.4389 26.233 39.8139 26.608C39.1889 26.983 38.4503 27.1705 37.598 27.1705ZM37.6094 25.5227C38.0715 25.5227 38.4579 25.3958 38.7685 25.142C39.0791 24.8845 39.3101 24.5398 39.4616 24.108C39.617 23.6761 39.6946 23.1951 39.6946 22.6648C39.6946 22.1307 39.617 21.6477 39.4616 21.2159C39.3101 20.7803 39.0791 20.4337 38.7685 20.1761C38.4579 19.9186 38.0715 19.7898 37.6094 19.7898C37.1359 19.7898 36.742 19.9186 36.4276 20.1761C36.117 20.4337 35.884 20.7803 35.7287 21.2159C35.5772 21.6477 35.5014 22.1307 35.5014 22.6648C35.5014 23.1951 35.5772 23.6761 35.7287 24.108C35.884 24.5398 36.117 24.8845 36.4276 25.142C36.742 25.3958 37.1359 25.5227 37.6094 25.5227ZM47.3324 27.1705C46.4612 27.1705 45.7131 26.9792 45.0881 26.5966C44.4669 26.214 43.9877 25.6856 43.6506 25.0114C43.3172 24.3333 43.1506 23.553 43.1506 22.6705C43.1506 21.7841 43.321 21.0019 43.6619 20.3239C44.0028 19.642 44.4839 19.1117 45.1051 18.733C45.7301 18.3504 46.4688 18.1591 47.321 18.1591C48.0294 18.1591 48.6563 18.2898 49.2017 18.5511C49.7509 18.8087 50.1884 19.1742 50.5142 19.6477C50.84 20.1174 51.0256 20.6667 51.071 21.2955H49.1051C49.0256 20.875 48.8362 20.5246 48.5369 20.2443C48.2415 19.9602 47.8456 19.8182 47.3494 19.8182C46.929 19.8182 46.5597 19.9318 46.2415 20.1591C45.9233 20.3826 45.6752 20.7045 45.4972 21.125C45.3229 21.5455 45.2358 22.0492 45.2358 22.6364C45.2358 23.2311 45.3229 23.7424 45.4972 24.1705C45.6714 24.5947 45.9157 24.9223 46.2301 25.1534C46.5483 25.3807 46.9214 25.4943 47.3494 25.4943C47.6525 25.4943 47.9233 25.4375 48.1619 25.3239C48.4044 25.2064 48.607 25.0379 48.7699 24.8182C48.9328 24.5985 49.0445 24.3314 49.1051 24.017H51.071C51.0218 24.6345 50.84 25.1818 50.5256 25.6591C50.2112 26.1326 49.7831 26.5038 49.2415 26.7727C48.6998 27.0379 48.0634 27.1705 47.3324 27.1705ZM58.3224 23.3295V18.2727H60.3793V27H58.3849V25.4489H58.294C58.0971 25.9375 57.7732 26.3371 57.3224 26.6477C56.8755 26.9583 56.3243 27.1136 55.669 27.1136C55.0971 27.1136 54.5914 26.9867 54.152 26.733C53.7164 26.4754 53.3755 26.1023 53.1293 25.6136C52.883 25.1212 52.7599 24.5265 52.7599 23.8295V18.2727H54.8168V23.5114C54.8168 24.0644 54.9683 24.5038 55.2713 24.8295C55.5743 25.1553 55.9721 25.3182 56.4645 25.3182C56.7675 25.3182 57.0611 25.2443 57.3452 25.0966C57.6293 24.9489 57.8622 24.7292 58.044 24.4375C58.2296 24.142 58.3224 23.7727 58.3224 23.3295ZM69.392 20.5795L67.517 20.7841C67.464 20.5947 67.3712 20.4167 67.2386 20.25C67.1098 20.0833 66.9356 19.9489 66.7159 19.8466C66.4962 19.7443 66.2273 19.6932 65.9091 19.6932C65.4811 19.6932 65.1212 19.786 64.8295 19.9716C64.5417 20.1572 64.3996 20.3977 64.4034 20.6932C64.3996 20.947 64.4924 21.1534 64.6818 21.3125C64.875 21.4716 65.1932 21.6023 65.6364 21.7045L67.125 22.0227C67.9508 22.2008 68.5644 22.483 68.9659 22.8693C69.3712 23.2557 69.5758 23.7614 69.5795 24.3864C69.5758 24.9356 69.4148 25.4205 69.0966 25.8409C68.7822 26.2576 68.3447 26.5833 67.7841 26.8182C67.2235 27.053 66.5795 27.1705 65.8523 27.1705C64.7841 27.1705 63.9242 26.947 63.2727 26.5C62.6212 26.0492 62.233 25.4223 62.108 24.6193L64.1136 24.4261C64.2045 24.8201 64.3977 25.1174 64.6932 25.3182C64.9886 25.5189 65.3731 25.6193 65.8466 25.6193C66.3352 25.6193 66.7273 25.5189 67.0227 25.3182C67.322 25.1174 67.4716 24.8693 67.4716 24.5739C67.4716 24.3239 67.375 24.1174 67.1818 23.9545C66.9924 23.7917 66.697 23.6667 66.2955 23.5795L64.8068 23.267C63.9697 23.0928 63.3504 22.7992 62.9489 22.3864C62.5473 21.9697 62.3485 21.4432 62.3523 20.8068C62.3485 20.2689 62.4943 19.803 62.7898 19.4091C63.089 19.0114 63.5038 18.7045 64.0341 18.4886C64.5682 18.2689 65.1837 18.1591 65.8807 18.1591C66.9034 18.1591 67.7083 18.3769 68.2955 18.8125C68.8864 19.2481 69.2519 19.8371 69.392 20.5795Z" fill="#B0B0B0"/>
<rect y="43" width="95" height="2" fill="#3D3E42"/>
<path d="M121.011 27V15.3636H125.67C126.527 15.3636 127.241 15.4905 127.812 15.7443C128.384 15.9981 128.814 16.3504 129.102 16.8011C129.39 17.2481 129.534 17.7633 129.534 18.3466C129.534 18.8011 129.443 19.2008 129.261 19.5455C129.08 19.8864 128.83 20.1667 128.511 20.3864C128.197 20.6023 127.837 20.7557 127.432 20.8466V20.9602C127.875 20.9792 128.29 21.1042 128.676 21.3352C129.066 21.5663 129.383 21.8902 129.625 22.3068C129.867 22.7197 129.989 23.2121 129.989 23.7841C129.989 24.4015 129.835 24.9527 129.528 25.4375C129.225 25.9186 128.777 26.2992 128.182 26.5795C127.587 26.8598 126.854 27 125.983 27H121.011ZM123.472 24.9886H125.477C126.163 24.9886 126.663 24.858 126.977 24.5966C127.292 24.3314 127.449 23.9792 127.449 23.5398C127.449 23.2178 127.371 22.9337 127.216 22.6875C127.061 22.4413 126.839 22.2481 126.551 22.108C126.267 21.9678 125.928 21.8977 125.534 21.8977H123.472V24.9886ZM123.472 20.233H125.295C125.633 20.233 125.932 20.1742 126.193 20.0568C126.458 19.9356 126.667 19.7652 126.818 19.5455C126.973 19.3258 127.051 19.0625 127.051 18.7557C127.051 18.3352 126.902 17.9962 126.602 17.7386C126.307 17.4811 125.886 17.3523 125.341 17.3523H123.472V20.233ZM131.544 27V18.2727H133.891V19.7955H133.982C134.141 19.2538 134.408 18.8447 134.783 18.5682C135.158 18.2879 135.589 18.1477 136.078 18.1477C136.199 18.1477 136.33 18.1553 136.47 18.1705C136.61 18.1856 136.733 18.2064 136.839 18.233V20.3807C136.726 20.3466 136.569 20.3163 136.368 20.2898C136.167 20.2633 135.983 20.25 135.817 20.25C135.461 20.25 135.143 20.3277 134.862 20.483C134.586 20.6345 134.366 20.8466 134.203 21.1193C134.044 21.392 133.964 21.7064 133.964 22.0625V27H131.544ZM141.662 27.1705C140.764 27.1705 139.991 26.9886 139.344 26.625C138.7 26.2576 138.204 25.7386 137.855 25.0682C137.507 24.3939 137.332 23.5966 137.332 22.6761C137.332 21.7784 137.507 20.9905 137.855 20.3125C138.204 19.6345 138.694 19.1061 139.327 18.7273C139.963 18.3485 140.709 18.1591 141.565 18.1591C142.141 18.1591 142.677 18.2519 143.173 18.4375C143.673 18.6193 144.109 18.8939 144.48 19.2614C144.855 19.6288 145.147 20.0909 145.355 20.6477C145.563 21.2008 145.668 21.8485 145.668 22.5909V23.2557H138.298V21.7557H143.389C143.389 21.4072 143.313 21.0985 143.162 20.8295C143.01 20.5606 142.8 20.3504 142.531 20.1989C142.266 20.0436 141.957 19.9659 141.605 19.9659C141.238 19.9659 140.912 20.0511 140.628 20.2216C140.348 20.3883 140.128 20.6136 139.969 20.8977C139.81 21.178 139.728 21.4905 139.724 21.8352V23.2614C139.724 23.6932 139.804 24.0663 139.963 24.3807C140.126 24.6951 140.355 24.9375 140.651 25.108C140.946 25.2784 141.296 25.3636 141.702 25.3636C141.971 25.3636 142.217 25.3258 142.44 25.25C142.664 25.1742 142.855 25.0606 143.014 24.9091C143.173 24.7576 143.295 24.572 143.378 24.3523L145.616 24.5C145.503 25.0379 145.27 25.5076 144.918 25.9091C144.569 26.3068 144.118 26.6174 143.565 26.8409C143.016 27.0606 142.382 27.1705 141.662 27.1705ZM149.736 27.1648C149.179 27.1648 148.683 27.0682 148.247 26.875C147.812 26.678 147.467 26.3883 147.213 26.0057C146.963 25.6193 146.838 25.1383 146.838 24.5625C146.838 24.0777 146.927 23.6705 147.105 23.3409C147.283 23.0114 147.526 22.7462 147.832 22.5455C148.139 22.3447 148.488 22.1932 148.878 22.0909C149.272 21.9886 149.685 21.9167 150.116 21.875C150.624 21.822 151.033 21.7727 151.344 21.7273C151.654 21.678 151.88 21.6061 152.02 21.5114C152.16 21.4167 152.23 21.2765 152.23 21.0909V21.0568C152.23 20.697 152.116 20.4186 151.889 20.2216C151.666 20.0246 151.348 19.9261 150.935 19.9261C150.499 19.9261 150.152 20.0227 149.895 20.2159C149.637 20.4053 149.467 20.6439 149.384 20.9318L147.145 20.75C147.259 20.2197 147.482 19.7614 147.815 19.375C148.149 18.9848 148.579 18.6856 149.105 18.4773C149.635 18.2652 150.249 18.1591 150.946 18.1591C151.431 18.1591 151.895 18.2159 152.338 18.3295C152.785 18.4432 153.181 18.6193 153.526 18.858C153.874 19.0966 154.149 19.4034 154.349 19.7784C154.55 20.1496 154.651 20.5947 154.651 21.1136V27H152.355V25.7898H152.287C152.147 26.0625 151.959 26.303 151.724 26.5114C151.49 26.7159 151.207 26.8769 150.878 26.9943C150.548 27.108 150.168 27.1648 149.736 27.1648ZM150.429 25.4943C150.785 25.4943 151.099 25.4242 151.372 25.2841C151.645 25.1402 151.859 24.947 152.014 24.7045C152.17 24.4621 152.247 24.1875 152.247 23.8807V22.9545C152.171 23.0038 152.067 23.0492 151.935 23.0909C151.806 23.1288 151.66 23.1648 151.497 23.1989C151.334 23.2292 151.171 23.2576 151.009 23.2841C150.846 23.3068 150.698 23.3277 150.565 23.3466C150.281 23.3883 150.033 23.4545 149.821 23.5455C149.609 23.6364 149.444 23.7595 149.327 23.9148C149.209 24.0663 149.151 24.2557 149.151 24.483C149.151 24.8125 149.27 25.0644 149.509 25.2386C149.751 25.4091 150.058 25.4943 150.429 25.4943ZM158.722 24.4886L158.727 21.5852H159.08L161.875 18.2727H164.653L160.898 22.6591H160.324L158.722 24.4886ZM156.528 27V15.3636H158.949V27H156.528ZM161.983 27L159.415 23.1989L161.028 21.4886L164.818 27H161.983Z" fill="#EFEFEF"/>
<rect x="95" y="43" width="95" height="2" fill="#AFB3B7"/>
<path d="M221.148 27V15.3636H225.511C226.405 15.3636 227.155 15.5189 227.761 15.8295C228.371 16.1402 228.831 16.5758 229.142 17.1364C229.456 17.6932 229.614 18.3428 229.614 19.0852C229.614 19.8314 229.455 20.4792 229.136 21.0284C228.822 21.5739 228.358 21.9962 227.744 22.2955C227.131 22.5909 226.377 22.7386 225.483 22.7386H222.375V20.9886H225.199C225.722 20.9886 226.15 20.9167 226.483 20.7727C226.816 20.625 227.063 20.411 227.222 20.1307C227.384 19.8466 227.466 19.4981 227.466 19.0852C227.466 18.6723 227.384 18.3201 227.222 18.0284C227.059 17.733 226.811 17.5095 226.477 17.358C226.144 17.2027 225.714 17.125 225.188 17.125H223.256V27H221.148ZM227.159 21.7273L230.04 27H227.688L224.858 21.7273H227.159ZM235.202 27.1705C234.327 27.1705 233.571 26.9886 232.935 26.625C232.302 26.2576 231.815 25.7386 231.474 25.0682C231.134 24.3939 230.963 23.6004 230.963 22.6875C230.963 21.7898 231.134 21.0019 231.474 20.3239C231.819 19.642 232.3 19.1117 232.918 18.733C233.535 18.3504 234.26 18.1591 235.094 18.1591C235.632 18.1591 236.139 18.2462 236.616 18.4205C237.098 18.5909 237.522 18.8561 237.889 19.2159C238.26 19.5758 238.552 20.0341 238.764 20.5909C238.976 21.1439 239.082 21.803 239.082 22.5682V23.1989H231.929V21.8125H237.111C237.107 21.4186 237.022 21.0682 236.855 20.7614C236.688 20.4508 236.455 20.2064 236.156 20.0284C235.861 19.8504 235.516 19.7614 235.122 19.7614C234.702 19.7614 234.332 19.8636 234.014 20.0682C233.696 20.2689 233.448 20.5341 233.27 20.8636C233.096 21.1894 233.007 21.5473 233.003 21.9375V23.1477C233.003 23.6553 233.096 24.0909 233.281 24.4545C233.467 24.8144 233.726 25.0909 234.06 25.2841C234.393 25.4735 234.783 25.5682 235.23 25.5682C235.529 25.5682 235.8 25.5265 236.043 25.4432C236.285 25.3561 236.495 25.2292 236.673 25.0625C236.851 24.8958 236.986 24.6894 237.077 24.4432L238.997 24.6591C238.876 25.1667 238.645 25.6098 238.304 25.9886C237.967 26.3636 237.535 26.6553 237.009 26.8636C236.482 27.0682 235.88 27.1705 235.202 27.1705ZM247.72 20.5795L245.845 20.7841C245.792 20.5947 245.699 20.4167 245.567 20.25C245.438 20.0833 245.264 19.9489 245.044 19.8466C244.824 19.7443 244.555 19.6932 244.237 19.6932C243.809 19.6932 243.449 19.786 243.158 19.9716C242.87 20.1572 242.728 20.3977 242.732 20.6932C242.728 20.947 242.821 21.1534 243.01 21.3125C243.203 21.4716 243.521 21.6023 243.964 21.7045L245.453 22.0227C246.279 22.2008 246.893 22.483 247.294 22.8693C247.699 23.2557 247.904 23.7614 247.908 24.3864C247.904 24.9356 247.743 25.4205 247.425 25.8409C247.11 26.2576 246.673 26.5833 246.112 26.8182C245.552 27.053 244.908 27.1705 244.18 27.1705C243.112 27.1705 242.252 26.947 241.601 26.5C240.949 26.0492 240.561 25.4223 240.436 24.6193L242.442 24.4261C242.533 24.8201 242.726 25.1174 243.021 25.3182C243.317 25.5189 243.701 25.6193 244.175 25.6193C244.663 25.6193 245.055 25.5189 245.351 25.3182C245.65 25.1174 245.8 24.8693 245.8 24.5739C245.8 24.3239 245.703 24.1174 245.51 23.9545C245.321 23.7917 245.025 23.6667 244.624 23.5795L243.135 23.267C242.298 23.0928 241.679 22.7992 241.277 22.3864C240.875 21.9697 240.677 21.4432 240.68 20.8068C240.677 20.2689 240.822 19.803 241.118 19.4091C241.417 19.0114 241.832 18.7045 242.362 18.4886C242.896 18.2689 243.512 18.1591 244.209 18.1591C245.232 18.1591 246.036 18.3769 246.624 18.8125C247.214 19.2481 247.58 19.8371 247.72 20.5795ZM253.962 18.2727V19.8636H248.945V18.2727H253.962ZM250.183 16.1818H252.24V24.375C252.24 24.6515 252.282 24.8636 252.365 25.0114C252.452 25.1553 252.566 25.2538 252.706 25.3068C252.846 25.3598 253.001 25.3864 253.172 25.3864C253.301 25.3864 253.418 25.3769 253.524 25.358C253.634 25.339 253.717 25.322 253.774 25.3068L254.121 26.9148C254.011 26.9527 253.854 26.9943 253.649 27.0398C253.448 27.0852 253.202 27.1117 252.911 27.1193C252.395 27.1345 251.931 27.0568 251.518 26.8864C251.106 26.7121 250.778 26.4432 250.536 26.0795C250.297 25.7159 250.179 25.2614 250.183 24.7159V16.1818Z" fill="#B0B0B0"/>
<rect x="190" y="43" width="95" height="2" fill="#3D3E42"/>
</svg>
