<svg width="285" height="45" viewBox="0 0 285 45" fill="none" xmlns="http://www.w3.org/2000/svg">
<path d="M25.0114 27V15.3636H32.7159V17.392H27.4716V20.1648H32.2045V22.1932H27.4716V27H25.0114ZM37.6278 27.1705C36.7453 27.1705 35.982 26.983 35.3381 26.608C34.6979 26.2292 34.2036 25.7027 33.8551 25.0284C33.5066 24.3504 33.3324 23.5644 33.3324 22.6705C33.3324 21.7689 33.5066 20.9811 33.8551 20.3068C34.2036 19.6288 34.6979 19.1023 35.3381 18.7273C35.982 18.3485 36.7453 18.1591 37.6278 18.1591C38.5104 18.1591 39.2718 18.3485 39.9119 18.7273C40.5559 19.1023 41.0521 19.6288 41.4006 20.3068C41.7491 20.9811 41.9233 21.7689 41.9233 22.6705C41.9233 23.5644 41.7491 24.3504 41.4006 25.0284C41.0521 25.7027 40.5559 26.2292 39.9119 26.608C39.2718 26.983 38.5104 27.1705 37.6278 27.1705ZM37.6392 25.2955C38.0407 25.2955 38.3759 25.1818 38.6449 24.9545C38.9138 24.7235 39.1165 24.4091 39.2528 24.0114C39.393 23.6136 39.4631 23.161 39.4631 22.6534C39.4631 22.1458 39.393 21.6932 39.2528 21.2955C39.1165 20.8977 38.9138 20.5833 38.6449 20.3523C38.3759 20.1212 38.0407 20.0057 37.6392 20.0057C37.2339 20.0057 36.893 20.1212 36.6165 20.3523C36.3438 20.5833 36.1373 20.8977 35.9972 21.2955C35.8608 21.6932 35.7926 22.1458 35.7926 22.6534C35.7926 23.161 35.8608 23.6136 35.9972 24.0114C36.1373 24.4091 36.3438 24.7235 36.6165 24.9545C36.893 25.1818 37.2339 25.2955 37.6392 25.2955ZM47.4403 27.1705C46.5464 27.1705 45.7775 26.9811 45.1335 26.6023C44.4934 26.2197 44.0009 25.6894 43.6562 25.0114C43.3153 24.3333 43.1449 23.553 43.1449 22.6705C43.1449 21.7765 43.3172 20.9924 43.6619 20.3182C44.0104 19.6402 44.5047 19.1117 45.1449 18.733C45.785 18.3504 46.5464 18.1591 47.429 18.1591C48.1903 18.1591 48.857 18.2973 49.429 18.5739C50.0009 18.8504 50.4536 19.2386 50.7869 19.7386C51.1203 20.2386 51.304 20.8258 51.3381 21.5H49.054C48.9896 21.0644 48.8191 20.714 48.5426 20.4489C48.2699 20.1799 47.9119 20.0455 47.4688 20.0455C47.0938 20.0455 46.7661 20.1477 46.4858 20.3523C46.2093 20.553 45.9934 20.8466 45.8381 21.233C45.6828 21.6193 45.6051 22.0871 45.6051 22.6364C45.6051 23.1932 45.6809 23.6667 45.8324 24.0568C45.9877 24.447 46.2055 24.7443 46.4858 24.9489C46.7661 25.1534 47.0938 25.2557 47.4688 25.2557C47.7453 25.2557 47.9934 25.1989 48.2131 25.0852C48.4366 24.9716 48.6203 24.8068 48.7642 24.5909C48.9119 24.3712 49.0085 24.108 49.054 23.8011H51.3381C51.3002 24.4678 51.1184 25.0549 50.7926 25.5625C50.4706 26.0663 50.0256 26.4602 49.4574 26.7443C48.8892 27.0284 48.2169 27.1705 47.4403 27.1705ZM58.4844 23.2841V18.2727H60.9048V27H58.581V25.4148H58.4901C58.2931 25.9261 57.9654 26.3371 57.5071 26.6477C57.0526 26.9583 56.4976 27.1136 55.8423 27.1136C55.259 27.1136 54.7457 26.9811 54.3026 26.7159C53.8594 26.4508 53.5128 26.0739 53.2628 25.5852C53.0166 25.0966 52.8916 24.5114 52.8878 23.8295V18.2727H55.3082V23.3977C55.312 23.9129 55.4503 24.3201 55.723 24.6193C55.9957 24.9186 56.3613 25.0682 56.8196 25.0682C57.1113 25.0682 57.384 25.0019 57.6378 24.8693C57.8916 24.733 58.0961 24.5322 58.2514 24.267C58.4105 24.0019 58.4882 23.6742 58.4844 23.2841ZM70.1023 20.7614L67.8864 20.8977C67.8485 20.7083 67.767 20.5379 67.642 20.3864C67.517 20.2311 67.3523 20.108 67.1477 20.017C66.947 19.9223 66.7064 19.875 66.4261 19.875C66.0511 19.875 65.7348 19.9545 65.4773 20.1136C65.2197 20.2689 65.0909 20.4773 65.0909 20.7386C65.0909 20.947 65.1742 21.1231 65.3409 21.267C65.5076 21.411 65.7936 21.5265 66.1989 21.6136L67.7784 21.9318C68.6269 22.1061 69.2595 22.3864 69.6761 22.7727C70.0928 23.1591 70.3011 23.6667 70.3011 24.2955C70.3011 24.8674 70.1326 25.3693 69.7955 25.8011C69.4621 26.233 69.0038 26.5701 68.4205 26.8125C67.8409 27.0511 67.1723 27.1705 66.4148 27.1705C65.2595 27.1705 64.339 26.9299 63.6534 26.4489C62.9716 25.964 62.572 25.3049 62.4545 24.4716L64.8352 24.3466C64.9072 24.6989 65.0814 24.9678 65.358 25.1534C65.6345 25.3352 65.9886 25.4261 66.4205 25.4261C66.8447 25.4261 67.1856 25.3447 67.4432 25.1818C67.7045 25.0152 67.8371 24.8011 67.8409 24.5398C67.8371 24.3201 67.7443 24.1402 67.5625 24C67.3807 23.8561 67.1004 23.7462 66.7216 23.6705L65.2102 23.3693C64.358 23.1989 63.7235 22.9034 63.3068 22.483C62.8939 22.0625 62.6875 21.5265 62.6875 20.875C62.6875 20.3144 62.839 19.8314 63.142 19.4261C63.4489 19.0208 63.8788 18.7083 64.4318 18.4886C64.9886 18.2689 65.6402 18.1591 66.3864 18.1591C67.4886 18.1591 68.3561 18.392 68.9886 18.858C69.625 19.3239 69.9962 19.9583 70.1023 20.7614Z" fill="#EFEFEF"/>
<rect y="43" width="95" height="2" fill="#AFB3B7"/>
<path d="M121.148 27V15.3636H125.602C126.443 15.3636 127.142 15.4962 127.699 15.7614C128.259 16.0227 128.678 16.3807 128.955 16.8352C129.235 17.2898 129.375 17.8049 129.375 18.3807C129.375 18.8542 129.284 19.2595 129.102 19.5966C128.92 19.9299 128.676 20.2008 128.369 20.4091C128.062 20.6174 127.72 20.767 127.341 20.858V20.9716C127.754 20.9943 128.15 21.1212 128.528 21.3523C128.911 21.5795 129.223 21.9015 129.466 22.3182C129.708 22.7348 129.83 23.2386 129.83 23.8295C129.83 24.4318 129.684 24.9735 129.392 25.4545C129.1 25.9318 128.661 26.3087 128.074 26.5852C127.487 26.8617 126.748 27 125.858 27H121.148ZM123.256 25.2386H125.523C126.288 25.2386 126.839 25.0928 127.176 24.8011C127.517 24.5057 127.688 24.1269 127.688 23.6648C127.688 23.3201 127.602 23.0095 127.432 22.733C127.261 22.4527 127.019 22.233 126.705 22.0739C126.39 21.911 126.015 21.8295 125.58 21.8295H123.256V25.2386ZM123.256 20.3125H125.341C125.705 20.3125 126.032 20.2462 126.324 20.1136C126.616 19.9773 126.845 19.786 127.011 19.5398C127.182 19.2898 127.267 18.9943 127.267 18.6534C127.267 18.2027 127.108 17.8314 126.79 17.5398C126.475 17.2481 126.008 17.1023 125.386 17.1023H123.256V20.3125ZM131.572 27V18.2727H133.567V19.7273H133.658C133.817 19.2235 134.089 18.8352 134.476 18.5625C134.866 18.286 135.311 18.1477 135.811 18.1477C135.925 18.1477 136.052 18.1534 136.192 18.1648C136.336 18.1723 136.455 18.1856 136.55 18.2045V20.0966C136.463 20.0663 136.324 20.0398 136.135 20.017C135.949 19.9905 135.769 19.9773 135.595 19.9773C135.22 19.9773 134.883 20.0587 134.584 20.2216C134.288 20.3807 134.055 20.6023 133.885 20.8864C133.714 21.1705 133.629 21.4981 133.629 21.8693V27H131.572ZM141.42 27.1705C140.545 27.1705 139.79 26.9886 139.153 26.625C138.521 26.2576 138.034 25.7386 137.693 25.0682C137.352 24.3939 137.182 23.6004 137.182 22.6875C137.182 21.7898 137.352 21.0019 137.693 20.3239C138.038 19.642 138.519 19.1117 139.136 18.733C139.754 18.3504 140.479 18.1591 141.312 18.1591C141.85 18.1591 142.358 18.2462 142.835 18.4205C143.316 18.5909 143.741 18.8561 144.108 19.2159C144.479 19.5758 144.771 20.0341 144.983 20.5909C145.195 21.1439 145.301 21.803 145.301 22.5682V23.1989H138.148V21.8125H143.33C143.326 21.4186 143.241 21.0682 143.074 20.7614C142.907 20.4508 142.674 20.2064 142.375 20.0284C142.08 19.8504 141.735 19.7614 141.341 19.7614C140.92 19.7614 140.551 19.8636 140.233 20.0682C139.915 20.2689 139.667 20.5341 139.489 20.8636C139.314 21.1894 139.225 21.5473 139.222 21.9375V23.1477C139.222 23.6553 139.314 24.0909 139.5 24.4545C139.686 24.8144 139.945 25.0909 140.278 25.2841C140.612 25.4735 141.002 25.5682 141.449 25.5682C141.748 25.5682 142.019 25.5265 142.261 25.4432C142.504 25.3561 142.714 25.2292 142.892 25.0625C143.07 24.8958 143.205 24.6894 143.295 24.4432L145.216 24.6591C145.095 25.1667 144.864 25.6098 144.523 25.9886C144.186 26.3636 143.754 26.6553 143.227 26.8636C142.701 27.0682 142.098 27.1705 141.42 27.1705ZM149.553 27.1761C149 27.1761 148.501 27.0777 148.058 26.8807C147.619 26.6799 147.27 26.3845 147.013 25.9943C146.759 25.6042 146.632 25.1231 146.632 24.5511C146.632 24.0587 146.723 23.6515 146.905 23.3295C147.087 23.0076 147.335 22.75 147.649 22.5568C147.964 22.3636 148.318 22.2178 148.712 22.1193C149.109 22.017 149.52 21.9432 149.945 21.8977C150.456 21.8447 150.871 21.7973 151.189 21.7557C151.507 21.7102 151.738 21.642 151.882 21.5511C152.03 21.4564 152.104 21.3106 152.104 21.1136V21.0795C152.104 20.6515 151.977 20.3201 151.723 20.0852C151.469 19.8504 151.104 19.733 150.626 19.733C150.123 19.733 149.723 19.8428 149.428 20.0625C149.136 20.2822 148.939 20.5417 148.837 20.8409L146.916 20.5682C147.068 20.0379 147.318 19.5947 147.666 19.2386C148.015 18.8788 148.441 18.6098 148.945 18.4318C149.448 18.25 150.005 18.1591 150.615 18.1591C151.036 18.1591 151.454 18.2083 151.871 18.3068C152.287 18.4053 152.668 18.5682 153.013 18.7955C153.357 19.0189 153.634 19.3239 153.842 19.7102C154.054 20.0966 154.161 20.5795 154.161 21.1591V27H152.183V25.8011H152.115C151.99 26.0436 151.814 26.2708 151.587 26.483C151.363 26.6913 151.081 26.8598 150.74 26.9886C150.403 27.1136 150.007 27.1761 149.553 27.1761ZM150.087 25.6648C150.5 25.6648 150.857 25.5833 151.161 25.4205C151.464 25.2538 151.696 25.0341 151.859 24.7614C152.026 24.4886 152.109 24.1913 152.109 23.8693V22.8409C152.045 22.8939 151.935 22.9432 151.78 22.9886C151.628 23.0341 151.458 23.0739 151.268 23.108C151.079 23.142 150.892 23.1723 150.706 23.1989C150.52 23.2254 150.359 23.2481 150.223 23.267C149.916 23.3087 149.642 23.3769 149.399 23.4716C149.157 23.5663 148.965 23.6989 148.825 23.8693C148.685 24.036 148.615 24.2519 148.615 24.517C148.615 24.8958 148.753 25.1818 149.03 25.375C149.306 25.5682 149.659 25.6648 150.087 25.6648ZM158.104 24.2614L158.098 21.7784H158.428L161.564 18.2727H163.967L160.109 22.5682H159.683L158.104 24.2614ZM156.229 27V15.3636H158.286V27H156.229ZM161.706 27L158.865 23.0284L160.251 21.5795L164.166 27H161.706Z" fill="#B0B0B0"/>
<rect x="95" y="43" width="95" height="2" fill="#3D3E42"/>
<path d="M221.148 27V15.3636H225.511C226.405 15.3636 227.155 15.5189 227.761 15.8295C228.371 16.1402 228.831 16.5758 229.142 17.1364C229.456 17.6932 229.614 18.3428 229.614 19.0852C229.614 19.8314 229.455 20.4792 229.136 21.0284C228.822 21.5739 228.358 21.9962 227.744 22.2955C227.131 22.5909 226.377 22.7386 225.483 22.7386H222.375V20.9886H225.199C225.722 20.9886 226.15 20.9167 226.483 20.7727C226.816 20.625 227.063 20.411 227.222 20.1307C227.384 19.8466 227.466 19.4981 227.466 19.0852C227.466 18.6723 227.384 18.3201 227.222 18.0284C227.059 17.733 226.811 17.5095 226.477 17.358C226.144 17.2027 225.714 17.125 225.188 17.125H223.256V27H221.148ZM227.159 21.7273L230.04 27H227.688L224.858 21.7273H227.159ZM235.202 27.1705C234.327 27.1705 233.571 26.9886 232.935 26.625C232.302 26.2576 231.815 25.7386 231.474 25.0682C231.134 24.3939 230.963 23.6004 230.963 22.6875C230.963 21.7898 231.134 21.0019 231.474 20.3239C231.819 19.642 232.3 19.1117 232.918 18.733C233.535 18.3504 234.26 18.1591 235.094 18.1591C235.632 18.1591 236.139 18.2462 236.616 18.4205C237.098 18.5909 237.522 18.8561 237.889 19.2159C238.26 19.5758 238.552 20.0341 238.764 20.5909C238.976 21.1439 239.082 21.803 239.082 22.5682V23.1989H231.929V21.8125H237.111C237.107 21.4186 237.022 21.0682 236.855 20.7614C236.688 20.4508 236.455 20.2064 236.156 20.0284C235.861 19.8504 235.516 19.7614 235.122 19.7614C234.702 19.7614 234.332 19.8636 234.014 20.0682C233.696 20.2689 233.448 20.5341 233.27 20.8636C233.096 21.1894 233.007 21.5473 233.003 21.9375V23.1477C233.003 23.6553 233.096 24.0909 233.281 24.4545C233.467 24.8144 233.726 25.0909 234.06 25.2841C234.393 25.4735 234.783 25.5682 235.23 25.5682C235.529 25.5682 235.8 25.5265 236.043 25.4432C236.285 25.3561 236.495 25.2292 236.673 25.0625C236.851 24.8958 236.986 24.6894 237.077 24.4432L238.997 24.6591C238.876 25.1667 238.645 25.6098 238.304 25.9886C237.967 26.3636 237.535 26.6553 237.009 26.8636C236.482 27.0682 235.88 27.1705 235.202 27.1705ZM247.72 20.5795L245.845 20.7841C245.792 20.5947 245.699 20.4167 245.567 20.25C245.438 20.0833 245.264 19.9489 245.044 19.8466C244.824 19.7443 244.555 19.6932 244.237 19.6932C243.809 19.6932 243.449 19.786 243.158 19.9716C242.87 20.1572 242.728 20.3977 242.732 20.6932C242.728 20.947 242.821 21.1534 243.01 21.3125C243.203 21.4716 243.521 21.6023 243.964 21.7045L245.453 22.0227C246.279 22.2008 246.893 22.483 247.294 22.8693C247.699 23.2557 247.904 23.7614 247.908 24.3864C247.904 24.9356 247.743 25.4205 247.425 25.8409C247.11 26.2576 246.673 26.5833 246.112 26.8182C245.552 27.053 244.908 27.1705 244.18 27.1705C243.112 27.1705 242.252 26.947 241.601 26.5C240.949 26.0492 240.561 25.4223 240.436 24.6193L242.442 24.4261C242.533 24.8201 242.726 25.1174 243.021 25.3182C243.317 25.5189 243.701 25.6193 244.175 25.6193C244.663 25.6193 245.055 25.5189 245.351 25.3182C245.65 25.1174 245.8 24.8693 245.8 24.5739C245.8 24.3239 245.703 24.1174 245.51 23.9545C245.321 23.7917 245.025 23.6667 244.624 23.5795L243.135 23.267C242.298 23.0928 241.679 22.7992 241.277 22.3864C240.875 21.9697 240.677 21.4432 240.68 20.8068C240.677 20.2689 240.822 19.803 241.118 19.4091C241.417 19.0114 241.832 18.7045 242.362 18.4886C242.896 18.2689 243.512 18.1591 244.209 18.1591C245.232 18.1591 246.036 18.3769 246.624 18.8125C247.214 19.2481 247.58 19.8371 247.72 20.5795ZM253.962 18.2727V19.8636H248.945V18.2727H253.962ZM250.183 16.1818H252.24V24.375C252.24 24.6515 252.282 24.8636 252.365 25.0114C252.452 25.1553 252.566 25.2538 252.706 25.3068C252.846 25.3598 253.001 25.3864 253.172 25.3864C253.301 25.3864 253.418 25.3769 253.524 25.358C253.634 25.339 253.717 25.322 253.774 25.3068L254.121 26.9148C254.011 26.9527 253.854 26.9943 253.649 27.0398C253.448 27.0852 253.202 27.1117 252.911 27.1193C252.395 27.1345 251.931 27.0568 251.518 26.8864C251.106 26.7121 250.778 26.4432 250.536 26.0795C250.297 25.7159 250.179 25.2614 250.183 24.7159V16.1818Z" fill="#B0B0B0"/>
<rect x="190" y="43" width="95" height="2" fill="#3D3E42"/>
</svg>
