<svg width="72" height="36" viewBox="0 0 72 36" fill="none" xmlns="http://www.w3.org/2000/svg">
<g clip-path="url(#clip0_11_999)">
<rect width="36" height="36" fill="#A0CCFF"/>
<path d="M24.5833 9.92254C24.5539 9.84703 24.5023 9.78217 24.4354 9.73645C24.3685 9.69072 24.2893 9.66626 24.2083 9.66626C24.1273 9.66626 24.0481 9.69072 23.9812 9.73645C23.9143 9.78217 23.8627 9.84703 23.8333 9.92254L23.475 10.835C23.4549 10.8866 23.4244 10.9335 23.3854 10.9728C23.3464 11.0121 23.2997 11.0429 23.2483 11.0634L22.3391 11.4234C22.2638 11.4534 22.1993 11.5052 22.1538 11.5723C22.1083 11.6394 22.084 11.7186 22.084 11.7996C22.084 11.8807 22.1083 11.9598 22.1538 12.0269C22.1993 12.094 22.2638 12.1459 22.3391 12.1759L23.2483 12.5359C23.2998 12.5561 23.3465 12.5867 23.3855 12.6259C23.4245 12.665 23.455 12.7118 23.475 12.7634L23.8333 13.675C23.9683 14.0167 24.45 14.0167 24.5833 13.675L24.9416 12.7625C24.9619 12.711 24.9926 12.6643 25.0317 12.6251C25.0709 12.586 25.1176 12.5553 25.1691 12.535L26.0783 12.175C26.1536 12.145 26.2182 12.0932 26.2636 12.0261C26.3091 11.959 26.3334 11.8798 26.3334 11.7988C26.3334 11.7177 26.3091 11.6386 26.2636 11.5715C26.2182 11.5044 26.1536 11.4525 26.0783 11.4225L25.1691 11.0625C25.1176 11.0422 25.0707 11.0114 25.0316 10.9721C24.9924 10.9328 24.9618 10.8859 24.9416 10.8342L24.5833 9.92254ZM21.3608 14.775C21.3314 14.6995 21.2798 14.6347 21.2129 14.5889C21.146 14.5432 21.0668 14.5188 20.9858 14.5188C20.9048 14.5188 20.8256 14.5432 20.7587 14.5889C20.6918 14.6347 20.6402 14.6995 20.6108 14.775L20.48 15.1075C20.4598 15.159 20.4292 15.2057 20.3903 15.2448C20.3513 15.284 20.3046 15.3147 20.2533 15.335L19.9216 15.4667C19.8463 15.4967 19.7818 15.5486 19.7363 15.6157C19.6908 15.6827 19.6665 15.7619 19.6665 15.843C19.6665 15.924 19.6908 16.0032 19.7363 16.0702C19.7818 16.1373 19.8463 16.1892 19.9216 16.2192L20.2533 16.35C20.3575 16.3917 20.4391 16.4734 20.48 16.5784L20.6108 16.9109C20.745 17.2525 21.2266 17.2525 21.3608 16.9109L21.4916 16.5775C21.5118 16.5261 21.5424 16.4794 21.5813 16.4403C21.6203 16.4011 21.667 16.3704 21.7183 16.35L22.05 16.2192C22.1253 16.1892 22.1898 16.1373 22.2353 16.0702C22.2808 16.0032 22.3051 15.924 22.3051 15.843C22.3051 15.7619 22.2808 15.6827 22.2353 15.6157C22.1898 15.5486 22.1253 15.4967 22.05 15.4667L21.7183 15.335C21.667 15.3147 21.6203 15.284 21.5813 15.2448C21.5424 15.2057 21.5118 15.159 21.4916 15.1075L21.3608 14.775Z" fill="#232931"/>
<path d="M18 26.3333C22.6025 26.3333 26.3333 22.6025 26.3333 18C26.3333 17.6141 25.755 17.55 25.5558 17.8808C25.131 18.5844 24.5517 19.1821 23.8616 19.6287C23.1716 20.0752 22.389 20.3589 21.5732 20.4582C20.7573 20.5575 19.9295 20.4699 19.1525 20.2019C18.3755 19.9339 17.6697 19.4926 17.0885 18.9114C16.5074 18.3302 16.0661 17.6244 15.7981 16.8474C15.5301 16.0704 15.4424 15.2426 15.5417 14.4268C15.641 13.6109 15.9247 12.8283 16.3712 12.1383C16.8178 11.4483 17.4155 10.8689 18.1191 10.4441C18.45 10.2441 18.3858 9.66663 18 9.66663C13.3975 9.66663 9.66663 13.3975 9.66663 18C9.66663 22.6025 13.3975 26.3333 18 26.3333Z" fill="#232931"/>
<path d="M59 18C59 19.3261 58.4732 20.5979 57.5355 21.5355C56.5979 22.4732 55.3261 23 54 23C52.6739 23 51.4021 22.4732 50.4645 21.5355C49.5268 20.5979 49 19.3261 49 18C49 16.6739 49.5268 15.4021 50.4645 14.4645C51.4021 13.5268 52.6739 13 54 13C55.3261 13 56.5979 13.5268 57.5355 14.4645C58.4732 15.4021 59 16.6739 59 18Z" fill="#919498"/>
<path fill-rule="evenodd" clip-rule="evenodd" d="M54 9.04163C54.1657 9.04163 54.3247 9.10747 54.4419 9.22468C54.5591 9.34189 54.625 9.50087 54.625 9.66663V10.5C54.625 10.6657 54.5591 10.8247 54.4419 10.9419C54.3247 11.0591 54.1657 11.125 54 11.125C53.8342 11.125 53.6752 11.0591 53.558 10.9419C53.4408 10.8247 53.375 10.6657 53.375 10.5V9.66663C53.375 9.50087 53.4408 9.34189 53.558 9.22468C53.6752 9.10747 53.8342 9.04163 54 9.04163ZM47.6658 11.6658C47.783 11.5488 47.9418 11.483 48.1075 11.483C48.2731 11.483 48.4319 11.5488 48.5491 11.6658L48.8766 11.9925C48.9905 12.1103 49.0536 12.2681 49.0523 12.432C49.0509 12.5959 48.9853 12.7527 48.8694 12.8686C48.7536 12.9845 48.5969 13.0503 48.433 13.0518C48.2691 13.0533 48.1112 12.9904 47.9933 12.8766L47.6658 12.5491C47.5488 12.4319 47.483 12.2731 47.483 12.1075C47.483 11.9418 47.5488 11.783 47.6658 11.6658ZM60.3341 11.6658C60.4512 11.783 60.5169 11.9418 60.5169 12.1075C60.5169 12.2731 60.4512 12.4319 60.3341 12.5491L60.0066 12.8766C59.8881 12.987 59.7314 13.0471 59.5695 13.0443C59.4076 13.0414 59.2531 12.9758 59.1386 12.8613C59.0241 12.7468 58.9585 12.5923 58.9556 12.4304C58.9528 12.2685 59.0129 12.1118 59.1233 11.9933L59.4508 11.6658C59.568 11.5488 59.7268 11.483 59.8925 11.483C60.0581 11.483 60.2169 11.5488 60.3341 11.6658ZM45.0416 18C45.0416 17.8342 45.1075 17.6752 45.2247 17.558C45.3419 17.4408 45.5009 17.375 45.6666 17.375H46.5C46.6657 17.375 46.8247 17.4408 46.9419 17.558C47.0591 17.6752 47.125 17.8342 47.125 18C47.125 18.1657 47.0591 18.3247 46.9419 18.4419C46.8247 18.5591 46.6657 18.625 46.5 18.625H45.6666C45.5009 18.625 45.3419 18.5591 45.2247 18.4419C45.1075 18.3247 45.0416 18.1657 45.0416 18ZM60.875 18C60.875 17.8342 60.9408 17.6752 61.058 17.558C61.1752 17.4408 61.3342 17.375 61.5 17.375H62.3333C62.4991 17.375 62.658 17.4408 62.7752 17.558C62.8924 17.6752 62.9583 17.8342 62.9583 18C62.9583 18.1657 62.8924 18.3247 62.7752 18.4419C62.658 18.5591 62.4991 18.625 62.3333 18.625H61.5C61.3342 18.625 61.1752 18.5591 61.058 18.4419C60.9408 18.3247 60.875 18.1657 60.875 18ZM59.1233 23.1233C59.2405 23.0063 59.3993 22.9405 59.565 22.9405C59.7306 22.9405 59.8894 23.0063 60.0066 23.1233L60.3341 23.4508C60.3955 23.508 60.4448 23.577 60.4789 23.6537C60.5131 23.7303 60.5315 23.8131 60.533 23.897C60.5344 23.9809 60.519 24.0643 60.4876 24.1421C60.4561 24.2199 60.4093 24.2906 60.35 24.35C60.2906 24.4093 60.2199 24.4561 60.1421 24.4876C60.0643 24.519 59.9809 24.5344 59.897 24.533C59.8131 24.5315 59.7303 24.5131 59.6537 24.4789C59.577 24.4448 59.508 24.3955 59.4508 24.3341L59.1233 24.0066C59.0063 23.8894 58.9405 23.7306 58.9405 23.565C58.9405 23.3993 59.0063 23.2405 59.1233 23.1233ZM48.8766 23.1233C48.9937 23.2405 49.0594 23.3993 49.0594 23.565C49.0594 23.7306 48.9937 23.8894 48.8766 24.0066L48.5491 24.3341C48.4919 24.3955 48.4229 24.4448 48.3462 24.4789C48.2696 24.5131 48.1868 24.5315 48.1029 24.533C48.019 24.5344 47.9356 24.519 47.8578 24.4876C47.78 24.4561 47.7093 24.4093 47.6499 24.35C47.5906 24.2906 47.5438 24.2199 47.5124 24.1421C47.4809 24.0643 47.4655 23.9809 47.467 23.897C47.4684 23.8131 47.4868 23.7303 47.521 23.6537C47.5551 23.577 47.6044 23.508 47.6658 23.4508L47.9925 23.1233C48.0505 23.0652 48.1194 23.0191 48.1953 22.9877C48.2711 22.9563 48.3524 22.9401 48.4345 22.9401C48.5167 22.9401 48.598 22.9563 48.6738 22.9877C48.7497 23.0191 48.8186 23.0652 48.8766 23.1233ZM54 24.875C54.1657 24.875 54.3247 24.9408 54.4419 25.058C54.5591 25.1752 54.625 25.3342 54.625 25.5V26.3333C54.625 26.4991 54.5591 26.658 54.4419 26.7752C54.3247 26.8924 54.1657 26.9583 54 26.9583C53.8342 26.9583 53.6752 26.8924 53.558 26.7752C53.4408 26.658 53.375 26.4991 53.375 26.3333V25.5C53.375 25.3342 53.4408 25.1752 53.558 25.058C53.6752 24.9408 53.8342 24.875 54 24.875Z" fill="#919498"/>
</g>
<rect x="0.5" y="0.5" width="71" height="35" rx="1.5" stroke="#AFB3B7"/>
<defs>
<clipPath id="clip0_11_999">
<rect width="72" height="36" rx="2" fill="white"/>
</clipPath>
</defs>
</svg>
