<svg width="96" height="35" viewBox="0 0 96 35" fill="none" xmlns="http://www.w3.org/2000/svg">
<rect width="96" height="35" rx="8" fill="#3D3E42"/>
<path d="M25.7784 23V11.3636H29.9261C30.8314 11.3636 31.5814 11.5284 32.1761 11.858C32.7708 12.1875 33.2159 12.6383 33.5114 13.2102C33.8068 13.7784 33.9545 14.4186 33.9545 15.1307C33.9545 15.8466 33.8049 16.4905 33.5057 17.0625C33.2102 17.6307 32.7633 18.0814 32.1648 18.4148C31.5701 18.7443 30.822 18.9091 29.9205 18.9091H27.0682V17.4205H29.7614C30.3333 17.4205 30.7973 17.322 31.1534 17.125C31.5095 16.9242 31.7708 16.6515 31.9375 16.3068C32.1042 15.9621 32.1875 15.5701 32.1875 15.1307C32.1875 14.6913 32.1042 14.3011 31.9375 13.9602C31.7708 13.6193 31.5076 13.3523 31.1477 13.1591C30.7917 12.9659 30.322 12.8693 29.7386 12.8693H27.5341V23H25.7784ZM38.3381 23.1932C37.785 23.1932 37.285 23.0909 36.8381 22.8864C36.3911 22.678 36.0369 22.3769 35.7756 21.983C35.518 21.589 35.3892 21.1061 35.3892 20.5341C35.3892 20.0417 35.4839 19.6364 35.6733 19.3182C35.8627 19 36.1184 18.7481 36.4403 18.5625C36.7623 18.3769 37.1222 18.2367 37.5199 18.142C37.9176 18.0473 38.3229 17.9754 38.7358 17.9261C39.2585 17.8655 39.6828 17.8163 40.0085 17.7784C40.3343 17.7367 40.571 17.6705 40.7188 17.5795C40.8665 17.4886 40.9403 17.3409 40.9403 17.1364V17.0966C40.9403 16.6004 40.8002 16.2159 40.5199 15.9432C40.2434 15.6705 39.8305 15.5341 39.2812 15.5341C38.7093 15.5341 38.2585 15.661 37.929 15.9148C37.6032 16.1648 37.3778 16.4432 37.2528 16.75L35.6562 16.3864C35.8456 15.8561 36.1222 15.428 36.4858 15.1023C36.8532 14.7727 37.2756 14.5341 37.7528 14.3864C38.2301 14.2348 38.732 14.1591 39.2585 14.1591C39.607 14.1591 39.9763 14.2008 40.3665 14.2841C40.7604 14.3636 41.1278 14.5114 41.4688 14.7273C41.8134 14.9432 42.0956 15.2519 42.3153 15.6534C42.535 16.0511 42.6449 16.5682 42.6449 17.2045V23H40.9858V21.8068H40.9176C40.8078 22.0265 40.643 22.2424 40.4233 22.4545C40.2036 22.6667 39.9214 22.8428 39.5767 22.983C39.232 23.1231 38.8191 23.1932 38.3381 23.1932ZM38.7074 21.8295C39.1771 21.8295 39.5786 21.7367 39.9119 21.5511C40.2491 21.3655 40.5047 21.1231 40.679 20.8239C40.857 20.5208 40.946 20.197 40.946 19.8523V18.7273C40.8854 18.7879 40.768 18.8447 40.5938 18.8977C40.4233 18.947 40.2282 18.9905 40.0085 19.0284C39.7888 19.0625 39.5748 19.0947 39.3665 19.125C39.1581 19.1515 38.9839 19.1742 38.8438 19.1932C38.5142 19.2348 38.2131 19.3049 37.9403 19.4034C37.6714 19.5019 37.4555 19.6439 37.2926 19.8295C37.1335 20.0114 37.054 20.2538 37.054 20.5568C37.054 20.9773 37.2093 21.2955 37.5199 21.5114C37.8305 21.7235 38.2263 21.8295 38.7074 21.8295ZM50.4361 19.3807V14.2727H52.1406V23H50.4702V21.4886H50.3793C50.1785 21.9545 49.8565 22.3428 49.4134 22.6534C48.974 22.9602 48.4266 23.1136 47.7713 23.1136C47.2107 23.1136 46.7145 22.9905 46.2827 22.7443C45.8546 22.4943 45.5175 22.125 45.2713 21.6364C45.0289 21.1477 44.9077 20.5436 44.9077 19.8239V14.2727H46.6065V19.6193C46.6065 20.214 46.7713 20.6875 47.1009 21.0398C47.4304 21.392 47.8584 21.5682 48.3849 21.5682C48.7031 21.5682 49.0194 21.4886 49.3338 21.3295C49.652 21.1705 49.9152 20.9299 50.1236 20.608C50.3357 20.286 50.4399 19.8769 50.4361 19.3807ZM60.9631 16.4034L59.4233 16.6761C59.3589 16.4792 59.2566 16.2917 59.1165 16.1136C58.9801 15.9356 58.7945 15.7898 58.5597 15.6761C58.3248 15.5625 58.0313 15.5057 57.679 15.5057C57.1979 15.5057 56.7964 15.6136 56.4744 15.8295C56.1525 16.0417 55.9915 16.3163 55.9915 16.6534C55.9915 16.9451 56.0994 17.1799 56.3153 17.358C56.5313 17.536 56.8797 17.6818 57.3608 17.7955L58.7472 18.1136C59.5502 18.2992 60.1487 18.5852 60.5426 18.9716C60.9366 19.358 61.1335 19.8598 61.1335 20.4773C61.1335 21 60.982 21.4659 60.679 21.875C60.3797 22.2803 59.9612 22.5985 59.4233 22.8295C58.8892 23.0606 58.2699 23.1761 57.5653 23.1761C56.5881 23.1761 55.7907 22.9678 55.1733 22.5511C54.5559 22.1307 54.1771 21.5341 54.0369 20.7614L55.679 20.5114C55.7813 20.9394 55.9915 21.2633 56.3097 21.483C56.6278 21.6989 57.0426 21.8068 57.554 21.8068C58.1108 21.8068 58.5559 21.6913 58.8892 21.4602C59.2225 21.2254 59.3892 20.9394 59.3892 20.6023C59.3892 20.3295 59.2869 20.1004 59.0824 19.9148C58.8816 19.7292 58.5729 19.589 58.1562 19.4943L56.679 19.1705C55.8646 18.9848 55.2623 18.6894 54.8722 18.2841C54.4858 17.8788 54.2926 17.3655 54.2926 16.7443C54.2926 16.2292 54.4366 15.7784 54.7244 15.392C55.0123 15.0057 55.41 14.7045 55.9176 14.4886C56.4252 14.2689 57.0066 14.1591 57.6619 14.1591C58.6051 14.1591 59.3475 14.3636 59.8892 14.7727C60.4309 15.178 60.7888 15.7216 60.9631 16.4034ZM66.7628 23.1761C65.9029 23.1761 65.1624 22.9924 64.5412 22.625C63.9238 22.2538 63.4465 21.733 63.1094 21.0625C62.776 20.3883 62.6094 19.5985 62.6094 18.6932C62.6094 17.7992 62.776 17.0114 63.1094 16.3295C63.4465 15.6477 63.9162 15.1155 64.5185 14.733C65.1245 14.3504 65.8329 14.1591 66.6435 14.1591C67.1359 14.1591 67.6132 14.2405 68.0753 14.4034C68.5374 14.5663 68.9522 14.822 69.3196 15.1705C69.687 15.5189 69.9768 15.9716 70.1889 16.5284C70.401 17.0814 70.5071 17.7538 70.5071 18.5455V19.1477H63.5696V17.875H68.8423C68.8423 17.428 68.7514 17.0322 68.5696 16.6875C68.3878 16.339 68.1321 16.0644 67.8026 15.8636C67.4768 15.6629 67.0942 15.5625 66.6548 15.5625C66.1776 15.5625 65.7609 15.6799 65.4048 15.9148C65.0526 16.1458 64.7798 16.4489 64.5866 16.8239C64.3973 17.1951 64.3026 17.5985 64.3026 18.0341V19.0284C64.3026 19.6117 64.4048 20.108 64.6094 20.517C64.8177 20.9261 65.1075 21.2386 65.4787 21.4545C65.8499 21.6667 66.2836 21.7727 66.7798 21.7727C67.1018 21.7727 67.3954 21.7273 67.6605 21.6364C67.9257 21.5417 68.1548 21.4015 68.348 21.2159C68.5412 21.0303 68.6889 20.8011 68.7912 20.5284L70.3991 20.8182C70.2704 21.2917 70.0393 21.7064 69.706 22.0625C69.3764 22.4148 68.9616 22.6894 68.4616 22.8864C67.9654 23.0795 67.3991 23.1761 66.7628 23.1761Z" fill="#919498"/>
</svg>
