<?xml version="1.0" encoding="UTF-8"?>
<svg id="Ebene_1" xmlns="http://www.w3.org/2000/svg" version="1.1" viewBox="0 0 24 24">
  <!-- Generator: Adobe Illustrator 29.8.3, SVG Export Plug-In . SVG Version: 2.1.1 Build 3)  -->
  <defs>
    <style>
      .st0 {
        fill: #fff;
      }
    </style>
  </defs>
  <path class="st0" d="M24,0v24H0V0h24ZM16.68,8.64c.86.23,4.1,0,5.28,0,.04,0,.6-.56.6-.6V2.76c0-.45-1.2-.45-1.2,0v3.48l-2.9-2.74C10.07-2.62-1.25,5.25,1.85,15.31c2.64,8.55,14.51,9.95,19.22,2.29.43-.7,2.03-4.01,1.26-4.53l-.95-.09c-1.23,8.11-11.15,11.45-16.59,4.9-2.68-3.22-2.87-8.03-.33-11.38,4.06-5.37,11.82-5.03,15.45.58-.04.71-2.81.1-3.36.47-.43.29-.23.99.13,1.09Z"/>
  <path d="M16.68,8.64c-.36-.1-.56-.79-.13-1.09.55-.38,3.32.24,3.36-.47-3.64-5.61-11.4-5.95-15.45-.58-2.54,3.36-2.34,8.16.33,11.38,5.44,6.54,15.35,3.2,16.59-4.9l.95.09c.77.52-.83,3.82-1.26,4.53-4.71,7.66-16.58,6.26-19.22-2.29C-1.25,5.25,10.07-2.62,18.46,3.5l2.9,2.74v-3.48c0-.45,1.2-.45,1.2,0v5.28s-.56.6-.6.6c-1.18,0-4.42.23-5.28,0Z"/>
</svg>