<svg width="285" height="45" viewBox="0 0 285 45" fill="none" xmlns="http://www.w3.org/2000/svg">
<path d="M25.1477 27V15.3636H32.6023V17.1307H27.2557V20.2898H32.0909V22.0568H27.2557V27H25.1477ZM37.598 27.1705C36.7457 27.1705 36.0071 26.983 35.3821 26.608C34.7571 26.233 34.2723 25.7083 33.9276 25.0341C33.5866 24.3598 33.4162 23.572 33.4162 22.6705C33.4162 21.7689 33.5866 20.9792 33.9276 20.3011C34.2723 19.6231 34.7571 19.0966 35.3821 18.7216C36.0071 18.3466 36.7457 18.1591 37.598 18.1591C38.4503 18.1591 39.1889 18.3466 39.8139 18.7216C40.4389 19.0966 40.9219 19.6231 41.2628 20.3011C41.6075 20.9792 41.7798 21.7689 41.7798 22.6705C41.7798 23.572 41.6075 24.3598 41.2628 25.0341C40.9219 25.7083 40.4389 26.233 39.8139 26.608C39.1889 26.983 38.4503 27.1705 37.598 27.1705ZM37.6094 25.5227C38.0715 25.5227 38.4579 25.3958 38.7685 25.142C39.0791 24.8845 39.3101 24.5398 39.4616 24.108C39.617 23.6761 39.6946 23.1951 39.6946 22.6648C39.6946 22.1307 39.617 21.6477 39.4616 21.2159C39.3101 20.7803 39.0791 20.4337 38.7685 20.1761C38.4579 19.9186 38.0715 19.7898 37.6094 19.7898C37.1359 19.7898 36.742 19.9186 36.4276 20.1761C36.117 20.4337 35.884 20.7803 35.7287 21.2159C35.5772 21.6477 35.5014 22.1307 35.5014 22.6648C35.5014 23.1951 35.5772 23.6761 35.7287 24.108C35.884 24.5398 36.117 24.8845 36.4276 25.142C36.742 25.3958 37.1359 25.5227 37.6094 25.5227ZM47.3324 27.1705C46.4612 27.1705 45.7131 26.9792 45.0881 26.5966C44.4669 26.214 43.9877 25.6856 43.6506 25.0114C43.3172 24.3333 43.1506 23.553 43.1506 22.6705C43.1506 21.7841 43.321 21.0019 43.6619 20.3239C44.0028 19.642 44.4839 19.1117 45.1051 18.733C45.7301 18.3504 46.4688 18.1591 47.321 18.1591C48.0294 18.1591 48.6563 18.2898 49.2017 18.5511C49.7509 18.8087 50.1884 19.1742 50.5142 19.6477C50.84 20.1174 51.0256 20.6667 51.071 21.2955H49.1051C49.0256 20.875 48.8362 20.5246 48.5369 20.2443C48.2415 19.9602 47.8456 19.8182 47.3494 19.8182C46.929 19.8182 46.5597 19.9318 46.2415 20.1591C45.9233 20.3826 45.6752 20.7045 45.4972 21.125C45.3229 21.5455 45.2358 22.0492 45.2358 22.6364C45.2358 23.2311 45.3229 23.7424 45.4972 24.1705C45.6714 24.5947 45.9157 24.9223 46.2301 25.1534C46.5483 25.3807 46.9214 25.4943 47.3494 25.4943C47.6525 25.4943 47.9233 25.4375 48.1619 25.3239C48.4044 25.2064 48.607 25.0379 48.7699 24.8182C48.9328 24.5985 49.0445 24.3314 49.1051 24.017H51.071C51.0218 24.6345 50.84 25.1818 50.5256 25.6591C50.2112 26.1326 49.7831 26.5038 49.2415 26.7727C48.6998 27.0379 48.0634 27.1705 47.3324 27.1705ZM58.3224 23.3295V18.2727H60.3793V27H58.3849V25.4489H58.294C58.0971 25.9375 57.7732 26.3371 57.3224 26.6477C56.8755 26.9583 56.3243 27.1136 55.669 27.1136C55.0971 27.1136 54.5914 26.9867 54.152 26.733C53.7164 26.4754 53.3755 26.1023 53.1293 25.6136C52.883 25.1212 52.7599 24.5265 52.7599 23.8295V18.2727H54.8168V23.5114C54.8168 24.0644 54.9683 24.5038 55.2713 24.8295C55.5743 25.1553 55.9721 25.3182 56.4645 25.3182C56.7675 25.3182 57.0611 25.2443 57.3452 25.0966C57.6293 24.9489 57.8622 24.7292 58.044 24.4375C58.2296 24.142 58.3224 23.7727 58.3224 23.3295ZM69.392 20.5795L67.517 20.7841C67.464 20.5947 67.3712 20.4167 67.2386 20.25C67.1098 20.0833 66.9356 19.9489 66.7159 19.8466C66.4962 19.7443 66.2273 19.6932 65.9091 19.6932C65.4811 19.6932 65.1212 19.786 64.8295 19.9716C64.5417 20.1572 64.3996 20.3977 64.4034 20.6932C64.3996 20.947 64.4924 21.1534 64.6818 21.3125C64.875 21.4716 65.1932 21.6023 65.6364 21.7045L67.125 22.0227C67.9508 22.2008 68.5644 22.483 68.9659 22.8693C69.3712 23.2557 69.5758 23.7614 69.5795 24.3864C69.5758 24.9356 69.4148 25.4205 69.0966 25.8409C68.7822 26.2576 68.3447 26.5833 67.7841 26.8182C67.2235 27.053 66.5795 27.1705 65.8523 27.1705C64.7841 27.1705 63.9242 26.947 63.2727 26.5C62.6212 26.0492 62.233 25.4223 62.108 24.6193L64.1136 24.4261C64.2045 24.8201 64.3977 25.1174 64.6932 25.3182C64.9886 25.5189 65.3731 25.6193 65.8466 25.6193C66.3352 25.6193 66.7273 25.5189 67.0227 25.3182C67.322 25.1174 67.4716 24.8693 67.4716 24.5739C67.4716 24.3239 67.375 24.1174 67.1818 23.9545C66.9924 23.7917 66.697 23.6667 66.2955 23.5795L64.8068 23.267C63.9697 23.0928 63.3504 22.7992 62.9489 22.3864C62.5473 21.9697 62.3485 21.4432 62.3523 20.8068C62.3485 20.2689 62.4943 19.803 62.7898 19.4091C63.089 19.0114 63.5038 18.7045 64.0341 18.4886C64.5682 18.2689 65.1837 18.1591 65.8807 18.1591C66.9034 18.1591 67.7083 18.3769 68.2955 18.8125C68.8864 19.2481 69.2519 19.8371 69.392 20.5795Z" fill="#B0B0B0"/>
<rect y="43" width="95" height="2" fill="#3D3E42"/>
<path d="M121.148 27V15.3636H125.602C126.443 15.3636 127.142 15.4962 127.699 15.7614C128.259 16.0227 128.678 16.3807 128.955 16.8352C129.235 17.2898 129.375 17.8049 129.375 18.3807C129.375 18.8542 129.284 19.2595 129.102 19.5966C128.92 19.9299 128.676 20.2008 128.369 20.4091C128.062 20.6174 127.72 20.767 127.341 20.858V20.9716C127.754 20.9943 128.15 21.1212 128.528 21.3523C128.911 21.5795 129.223 21.9015 129.466 22.3182C129.708 22.7348 129.83 23.2386 129.83 23.8295C129.83 24.4318 129.684 24.9735 129.392 25.4545C129.1 25.9318 128.661 26.3087 128.074 26.5852C127.487 26.8617 126.748 27 125.858 27H121.148ZM123.256 25.2386H125.523C126.288 25.2386 126.839 25.0928 127.176 24.8011C127.517 24.5057 127.688 24.1269 127.688 23.6648C127.688 23.3201 127.602 23.0095 127.432 22.733C127.261 22.4527 127.019 22.233 126.705 22.0739C126.39 21.911 126.015 21.8295 125.58 21.8295H123.256V25.2386ZM123.256 20.3125H125.341C125.705 20.3125 126.032 20.2462 126.324 20.1136C126.616 19.9773 126.845 19.786 127.011 19.5398C127.182 19.2898 127.267 18.9943 127.267 18.6534C127.267 18.2027 127.108 17.8314 126.79 17.5398C126.475 17.2481 126.008 17.1023 125.386 17.1023H123.256V20.3125ZM131.572 27V18.2727H133.567V19.7273H133.658C133.817 19.2235 134.089 18.8352 134.476 18.5625C134.866 18.286 135.311 18.1477 135.811 18.1477C135.925 18.1477 136.052 18.1534 136.192 18.1648C136.336 18.1723 136.455 18.1856 136.55 18.2045V20.0966C136.463 20.0663 136.324 20.0398 136.135 20.017C135.949 19.9905 135.769 19.9773 135.595 19.9773C135.22 19.9773 134.883 20.0587 134.584 20.2216C134.288 20.3807 134.055 20.6023 133.885 20.8864C133.714 21.1705 133.629 21.4981 133.629 21.8693V27H131.572ZM141.42 27.1705C140.545 27.1705 139.79 26.9886 139.153 26.625C138.521 26.2576 138.034 25.7386 137.693 25.0682C137.352 24.3939 137.182 23.6004 137.182 22.6875C137.182 21.7898 137.352 21.0019 137.693 20.3239C138.038 19.642 138.519 19.1117 139.136 18.733C139.754 18.3504 140.479 18.1591 141.312 18.1591C141.85 18.1591 142.358 18.2462 142.835 18.4205C143.316 18.5909 143.741 18.8561 144.108 19.2159C144.479 19.5758 144.771 20.0341 144.983 20.5909C145.195 21.1439 145.301 21.803 145.301 22.5682V23.1989H138.148V21.8125H143.33C143.326 21.4186 143.241 21.0682 143.074 20.7614C142.907 20.4508 142.674 20.2064 142.375 20.0284C142.08 19.8504 141.735 19.7614 141.341 19.7614C140.92 19.7614 140.551 19.8636 140.233 20.0682C139.915 20.2689 139.667 20.5341 139.489 20.8636C139.314 21.1894 139.225 21.5473 139.222 21.9375V23.1477C139.222 23.6553 139.314 24.0909 139.5 24.4545C139.686 24.8144 139.945 25.0909 140.278 25.2841C140.612 25.4735 141.002 25.5682 141.449 25.5682C141.748 25.5682 142.019 25.5265 142.261 25.4432C142.504 25.3561 142.714 25.2292 142.892 25.0625C143.07 24.8958 143.205 24.6894 143.295 24.4432L145.216 24.6591C145.095 25.1667 144.864 25.6098 144.523 25.9886C144.186 26.3636 143.754 26.6553 143.227 26.8636C142.701 27.0682 142.098 27.1705 141.42 27.1705ZM149.553 27.1761C149 27.1761 148.501 27.0777 148.058 26.8807C147.619 26.6799 147.27 26.3845 147.013 25.9943C146.759 25.6042 146.632 25.1231 146.632 24.5511C146.632 24.0587 146.723 23.6515 146.905 23.3295C147.087 23.0076 147.335 22.75 147.649 22.5568C147.964 22.3636 148.318 22.2178 148.712 22.1193C149.109 22.017 149.52 21.9432 149.945 21.8977C150.456 21.8447 150.871 21.7973 151.189 21.7557C151.507 21.7102 151.738 21.642 151.882 21.5511C152.03 21.4564 152.104 21.3106 152.104 21.1136V21.0795C152.104 20.6515 151.977 20.3201 151.723 20.0852C151.469 19.8504 151.104 19.733 150.626 19.733C150.123 19.733 149.723 19.8428 149.428 20.0625C149.136 20.2822 148.939 20.5417 148.837 20.8409L146.916 20.5682C147.068 20.0379 147.318 19.5947 147.666 19.2386C148.015 18.8788 148.441 18.6098 148.945 18.4318C149.448 18.25 150.005 18.1591 150.615 18.1591C151.036 18.1591 151.454 18.2083 151.871 18.3068C152.287 18.4053 152.668 18.5682 153.013 18.7955C153.357 19.0189 153.634 19.3239 153.842 19.7102C154.054 20.0966 154.161 20.5795 154.161 21.1591V27H152.183V25.8011H152.115C151.99 26.0436 151.814 26.2708 151.587 26.483C151.363 26.6913 151.081 26.8598 150.74 26.9886C150.403 27.1136 150.007 27.1761 149.553 27.1761ZM150.087 25.6648C150.5 25.6648 150.857 25.5833 151.161 25.4205C151.464 25.2538 151.696 25.0341 151.859 24.7614C152.026 24.4886 152.109 24.1913 152.109 23.8693V22.8409C152.045 22.8939 151.935 22.9432 151.78 22.9886C151.628 23.0341 151.458 23.0739 151.268 23.108C151.079 23.142 150.892 23.1723 150.706 23.1989C150.52 23.2254 150.359 23.2481 150.223 23.267C149.916 23.3087 149.642 23.3769 149.399 23.4716C149.157 23.5663 148.965 23.6989 148.825 23.8693C148.685 24.036 148.615 24.2519 148.615 24.517C148.615 24.8958 148.753 25.1818 149.03 25.375C149.306 25.5682 149.659 25.6648 150.087 25.6648ZM158.104 24.2614L158.098 21.7784H158.428L161.564 18.2727H163.967L160.109 22.5682H159.683L158.104 24.2614ZM156.229 27V15.3636H158.286V27H156.229ZM161.706 27L158.865 23.0284L160.251 21.5795L164.166 27H161.706Z" fill="#B0B0B0"/>
<rect x="95" y="43" width="95" height="2" fill="#3D3E42"/>
<path d="M220.511 27V15.3636H225.102C225.981 15.3636 226.731 15.5208 227.352 15.8352C227.977 16.1458 228.453 16.5871 228.778 17.1591C229.108 17.7273 229.273 18.3958 229.273 19.1648C229.273 19.9375 229.106 20.6023 228.773 21.1591C228.439 21.7121 227.956 22.1364 227.324 22.4318C226.695 22.7273 225.934 22.875 225.04 22.875H221.966V20.8977H224.642C225.112 20.8977 225.502 20.8333 225.812 20.7045C226.123 20.5758 226.354 20.3826 226.506 20.125C226.661 19.8674 226.739 19.5473 226.739 19.1648C226.739 18.7784 226.661 18.4527 226.506 18.1875C226.354 17.9223 226.121 17.7216 225.807 17.5852C225.496 17.4451 225.104 17.375 224.631 17.375H222.972V27H220.511ZM226.795 21.7045L229.688 27H226.972L224.142 21.7045H226.795ZM234.803 27.1705C233.905 27.1705 233.132 26.9886 232.484 26.625C231.84 26.2576 231.344 25.7386 230.996 25.0682C230.647 24.3939 230.473 23.5966 230.473 22.6761C230.473 21.7784 230.647 20.9905 230.996 20.3125C231.344 19.6345 231.835 19.1061 232.467 18.7273C233.104 18.3485 233.85 18.1591 234.706 18.1591C235.282 18.1591 235.818 18.2519 236.314 18.4375C236.814 18.6193 237.25 18.8939 237.621 19.2614C237.996 19.6288 238.287 20.0909 238.496 20.6477C238.704 21.2008 238.808 21.8485 238.808 22.5909V23.2557H231.439V21.7557H236.53C236.53 21.4072 236.454 21.0985 236.303 20.8295C236.151 20.5606 235.941 20.3504 235.672 20.1989C235.407 20.0436 235.098 19.9659 234.746 19.9659C234.378 19.9659 234.053 20.0511 233.768 20.2216C233.488 20.3883 233.268 20.6136 233.109 20.8977C232.95 21.178 232.869 21.4905 232.865 21.8352V23.2614C232.865 23.6932 232.945 24.0663 233.104 24.3807C233.267 24.6951 233.496 24.9375 233.791 25.108C234.087 25.2784 234.437 25.3636 234.842 25.3636C235.111 25.3636 235.357 25.3258 235.581 25.25C235.804 25.1742 235.996 25.0606 236.155 24.9091C236.314 24.7576 236.435 24.572 236.518 24.3523L238.757 24.5C238.643 25.0379 238.411 25.5076 238.058 25.9091C237.71 26.3068 237.259 26.6174 236.706 26.8409C236.157 27.0606 235.522 27.1705 234.803 27.1705ZM247.649 20.7614L245.433 20.8977C245.395 20.7083 245.314 20.5379 245.189 20.3864C245.064 20.2311 244.899 20.108 244.695 20.017C244.494 19.9223 244.253 19.875 243.973 19.875C243.598 19.875 243.282 19.9545 243.024 20.1136C242.767 20.2689 242.638 20.4773 242.638 20.7386C242.638 20.947 242.721 21.1231 242.888 21.267C243.054 21.411 243.34 21.5265 243.746 21.6136L245.325 21.9318C246.174 22.1061 246.806 22.3864 247.223 22.7727C247.64 23.1591 247.848 23.6667 247.848 24.2955C247.848 24.8674 247.679 25.3693 247.342 25.8011C247.009 26.233 246.551 26.5701 245.967 26.8125C245.388 27.0511 244.719 27.1705 243.962 27.1705C242.806 27.1705 241.886 26.9299 241.2 26.4489C240.518 25.964 240.119 25.3049 240.001 24.4716L242.382 24.3466C242.454 24.6989 242.628 24.9678 242.905 25.1534C243.181 25.3352 243.536 25.4261 243.967 25.4261C244.392 25.4261 244.732 25.3447 244.99 25.1818C245.251 25.0152 245.384 24.8011 245.388 24.5398C245.384 24.3201 245.291 24.1402 245.109 24C244.928 23.8561 244.647 23.7462 244.268 23.6705L242.757 23.3693C241.905 23.1989 241.27 22.9034 240.854 22.483C240.441 22.0625 240.234 21.5265 240.234 20.875C240.234 20.3144 240.386 19.8314 240.689 19.4261C240.996 19.0208 241.426 18.7083 241.979 18.4886C242.536 18.2689 243.187 18.1591 243.933 18.1591C245.036 18.1591 245.903 18.392 246.536 18.858C247.172 19.3239 247.543 19.9583 247.649 20.7614ZM254.014 18.2727V20.0909H248.759V18.2727H254.014ZM249.952 16.1818H252.372V24.3182C252.372 24.5417 252.406 24.7159 252.474 24.8409C252.543 24.9621 252.637 25.0473 252.759 25.0966C252.884 25.1458 253.027 25.1705 253.19 25.1705C253.304 25.1705 253.418 25.161 253.531 25.142C253.645 25.1193 253.732 25.1023 253.793 25.0909L254.173 26.892C254.052 26.9299 253.882 26.9735 253.662 27.0227C253.442 27.0758 253.175 27.108 252.861 27.1193C252.277 27.142 251.766 27.0644 251.327 26.8864C250.891 26.7083 250.552 26.4318 250.31 26.0568C250.067 25.6818 249.948 25.2083 249.952 24.6364V16.1818Z" fill="#EFEFEF"/>
<rect x="190" y="43" width="95" height="2" fill="#AFB3B7"/>
</svg>
