<svg width="96" height="35" viewBox="0 0 96 35" fill="none" xmlns="http://www.w3.org/2000/svg">
<rect width="96" height="35" rx="8" fill="#A0CCFF"/>
<path d="M36.625 14.4205C36.5644 13.8826 36.3144 13.4659 35.875 13.1705C35.4356 12.8712 34.8826 12.7216 34.2159 12.7216C33.7386 12.7216 33.3258 12.7973 32.9773 12.9489C32.6288 13.0966 32.358 13.3011 32.1648 13.5625C31.9754 13.8201 31.8807 14.1136 31.8807 14.4432C31.8807 14.7197 31.9451 14.9583 32.0739 15.1591C32.2064 15.3598 32.3788 15.5284 32.5909 15.6648C32.8068 15.7973 33.0379 15.9091 33.2841 16C33.5303 16.0871 33.767 16.1591 33.9943 16.2159L35.1307 16.5114C35.5019 16.6023 35.8826 16.7254 36.2727 16.8807C36.6629 17.036 37.0246 17.2405 37.358 17.4943C37.6913 17.7481 37.9602 18.0625 38.1648 18.4375C38.3731 18.8125 38.4773 19.2614 38.4773 19.7841C38.4773 20.4432 38.3068 21.0284 37.9659 21.5398C37.6288 22.0511 37.1383 22.4545 36.4943 22.75C35.8542 23.0455 35.0795 23.1932 34.1705 23.1932C33.2992 23.1932 32.5455 23.0549 31.9091 22.7784C31.2727 22.5019 30.7746 22.1098 30.4148 21.6023C30.0549 21.0909 29.8561 20.4848 29.8182 19.7841H31.5795C31.6136 20.2045 31.75 20.5549 31.9886 20.8352C32.2311 21.1117 32.5398 21.3182 32.9148 21.4545C33.2936 21.5871 33.7083 21.6534 34.1591 21.6534C34.6553 21.6534 35.0966 21.5758 35.483 21.4205C35.8731 21.2614 36.1799 21.0417 36.4034 20.7614C36.6269 20.4773 36.7386 20.1458 36.7386 19.767C36.7386 19.4223 36.6402 19.1402 36.4432 18.9205C36.25 18.7008 35.9867 18.5189 35.6534 18.375C35.3239 18.2311 34.9508 18.1042 34.5341 17.9943L33.1591 17.6193C32.2273 17.3655 31.4886 16.9924 30.9432 16.5C30.4015 16.0076 30.1307 15.3561 30.1307 14.5455C30.1307 13.875 30.3125 13.2898 30.6761 12.7898C31.0398 12.2898 31.5322 11.9015 32.1534 11.625C32.7746 11.3447 33.4754 11.2045 34.2557 11.2045C35.0436 11.2045 35.7386 11.3428 36.3409 11.6193C36.947 11.8958 37.4242 12.2765 37.7727 12.7614C38.1212 13.2424 38.303 13.7955 38.3182 14.4205H36.625ZM44.5128 14.2727V15.6364H39.7457V14.2727H44.5128ZM41.0241 12.1818H42.723V20.4375C42.723 20.767 42.7723 21.0152 42.8707 21.1818C42.9692 21.3447 43.0961 21.4564 43.2514 21.517C43.4105 21.5739 43.5829 21.6023 43.7685 21.6023C43.9048 21.6023 44.0241 21.5928 44.1264 21.5739C44.2287 21.5549 44.3082 21.5398 44.3651 21.5284L44.6719 22.9318C44.5734 22.9697 44.4332 23.0076 44.2514 23.0455C44.0696 23.0871 43.8423 23.1098 43.5696 23.1136C43.1226 23.1212 42.706 23.0417 42.3196 22.875C41.9332 22.7083 41.6207 22.4508 41.3821 22.1023C41.1435 21.7538 41.0241 21.3163 41.0241 20.7898V12.1818ZM48.9318 23.1932C48.3788 23.1932 47.8788 23.0909 47.4318 22.8864C46.9848 22.678 46.6307 22.3769 46.3693 21.983C46.1117 21.589 45.983 21.1061 45.983 20.5341C45.983 20.0417 46.0777 19.6364 46.267 19.3182C46.4564 19 46.7121 18.7481 47.0341 18.5625C47.3561 18.3769 47.7159 18.2367 48.1136 18.142C48.5114 18.0473 48.9167 17.9754 49.3295 17.9261C49.8523 17.8655 50.2765 17.8163 50.6023 17.7784C50.928 17.7367 51.1648 17.6705 51.3125 17.5795C51.4602 17.4886 51.5341 17.3409 51.5341 17.1364V17.0966C51.5341 16.6004 51.3939 16.2159 51.1136 15.9432C50.8371 15.6705 50.4242 15.5341 49.875 15.5341C49.303 15.5341 48.8523 15.661 48.5227 15.9148C48.197 16.1648 47.9716 16.4432 47.8466 16.75L46.25 16.3864C46.4394 15.8561 46.7159 15.428 47.0795 15.1023C47.447 14.7727 47.8693 14.5341 48.3466 14.3864C48.8239 14.2348 49.3258 14.1591 49.8523 14.1591C50.2008 14.1591 50.5701 14.2008 50.9602 14.2841C51.3542 14.3636 51.7216 14.5114 52.0625 14.7273C52.4072 14.9432 52.6894 15.2519 52.9091 15.6534C53.1288 16.0511 53.2386 16.5682 53.2386 17.2045V23H51.5795V21.8068H51.5114C51.4015 22.0265 51.2367 22.2424 51.017 22.4545C50.7973 22.6667 50.5152 22.8428 50.1705 22.983C49.8258 23.1231 49.4129 23.1932 48.9318 23.1932ZM49.3011 21.8295C49.7708 21.8295 50.1723 21.7367 50.5057 21.5511C50.8428 21.3655 51.0985 21.1231 51.2727 20.8239C51.4508 20.5208 51.5398 20.197 51.5398 19.8523V18.7273C51.4792 18.7879 51.3617 18.8447 51.1875 18.8977C51.017 18.947 50.822 18.9905 50.6023 19.0284C50.3826 19.0625 50.1686 19.0947 49.9602 19.125C49.7519 19.1515 49.5777 19.1742 49.4375 19.1932C49.108 19.2348 48.8068 19.3049 48.5341 19.4034C48.2652 19.5019 48.0492 19.6439 47.8864 19.8295C47.7273 20.0114 47.6477 20.2538 47.6477 20.5568C47.6477 20.9773 47.803 21.2955 48.1136 21.5114C48.4242 21.7235 48.8201 21.8295 49.3011 21.8295ZM55.5014 23V14.2727H57.1435V15.6591H57.2344C57.3935 15.1894 57.6738 14.8201 58.0753 14.5511C58.4806 14.2784 58.9389 14.142 59.4503 14.142C59.5563 14.142 59.6813 14.1458 59.8253 14.1534C59.973 14.161 60.0885 14.1705 60.1719 14.1818V15.8068C60.1037 15.7879 59.9825 15.767 59.8082 15.7443C59.634 15.7178 59.4598 15.7045 59.2855 15.7045C58.884 15.7045 58.526 15.7898 58.2116 15.9602C57.901 16.1269 57.6548 16.3598 57.473 16.6591C57.2912 16.9545 57.2003 17.2917 57.2003 17.6705V23H55.5014ZM66.2315 14.2727V15.6364H61.4645V14.2727H66.2315ZM62.7429 12.1818H64.4418V20.4375C64.4418 20.767 64.491 21.0152 64.5895 21.1818C64.688 21.3447 64.8149 21.4564 64.9702 21.517C65.1293 21.5739 65.3016 21.6023 65.4872 21.6023C65.6236 21.6023 65.7429 21.5928 65.8452 21.5739C65.9474 21.5549 66.027 21.5398 66.0838 21.5284L66.3906 22.9318C66.2921 22.9697 66.152 23.0076 65.9702 23.0455C65.7884 23.0871 65.5611 23.1098 65.2884 23.1136C64.8414 23.1212 64.4247 23.0417 64.0384 22.875C63.652 22.7083 63.3395 22.4508 63.1009 22.1023C62.8622 21.7538 62.7429 21.3163 62.7429 20.7898V12.1818Z" fill="#232931"/>
</svg>
