<svg width="353" height="126" viewBox="0 0 353 126" fill="none" xmlns="http://www.w3.org/2000/svg">
<path d="M32.8636 125.273C26.6212 125.273 21.0455 124.197 16.1364 122.045C11.2576 119.894 7.39394 116.909 4.54545 113.091C1.72727 109.242 0.212121 104.788 0 99.7273H14.2727C14.4545 102.485 15.3788 104.879 17.0455 106.909C18.7424 108.909 20.9545 110.455 23.6818 111.545C26.4091 112.636 29.4394 113.182 32.7727 113.182C36.4394 113.182 39.6818 112.545 42.5 111.273C45.3485 110 47.5758 108.227 49.1818 105.955C50.7879 103.652 51.5909 101 51.5909 98C51.5909 94.8788 50.7879 92.1364 49.1818 89.7727C47.6061 87.3788 45.2879 85.5 42.2273 84.1364C39.197 82.7727 35.5303 82.0909 31.2273 82.0909H23.3636V70.6364H31.2273C34.6818 70.6364 37.7121 70.0151 40.3182 68.7727C42.9545 67.5303 45.0152 65.803 46.5 63.5909C47.9849 61.3485 48.7273 58.7273 48.7273 55.7273C48.7273 52.8485 48.0758 50.3485 46.7727 48.2273C45.5 46.0758 43.6818 44.3939 41.3182 43.1818C38.9849 41.9697 36.2273 41.3636 33.0455 41.3636C30.0152 41.3636 27.1818 41.9242 24.5455 43.0455C21.9394 44.1364 19.8182 45.7121 18.1818 47.7727C16.5455 49.803 15.6667 52.2424 15.5455 55.0909H1.95455C2.10606 50.0606 3.59091 45.6364 6.40909 41.8182C9.25758 38 13.0152 35.0151 17.6818 32.8636C22.3485 30.7121 27.5303 29.6364 33.2273 29.6364C39.197 29.6364 44.3485 30.803 48.6818 33.1364C53.0455 35.4394 56.4091 38.5151 58.7727 42.3636C61.1667 46.2121 62.3485 50.4242 62.3182 55C62.3485 60.2121 60.8939 64.6364 57.9545 68.2727C55.0455 71.9091 51.1667 74.3485 46.3182 75.5909V76.3182C52.5 77.2576 57.2879 79.7121 60.6818 83.6818C64.1061 87.6515 65.803 92.5758 65.7727 98.4545C65.803 103.576 64.3788 108.167 61.5 112.227C58.6515 116.288 54.7576 119.485 49.8182 121.818C44.8788 124.121 39.2273 125.273 32.8636 125.273ZM115.364 125.545C108.182 125.515 102.045 123.621 96.9545 119.864C91.8636 116.106 87.9697 110.636 85.2727 103.455C82.5758 96.2727 81.2273 87.6212 81.2273 77.5C81.2273 67.4091 82.5758 58.7879 85.2727 51.6364C88 44.4848 91.9091 39.0303 97 35.2727C102.121 31.5151 108.242 29.6364 115.364 29.6364C122.485 29.6364 128.591 31.5303 133.682 35.3182C138.773 39.0758 142.667 44.5303 145.364 51.6818C148.091 58.803 149.455 67.4091 149.455 77.5C149.455 87.6515 148.106 96.3182 145.409 103.5C142.712 110.652 138.818 116.121 133.727 119.909C128.636 123.667 122.515 125.545 115.364 125.545ZM115.364 113.409C121.667 113.409 126.591 110.333 130.136 104.182C133.712 98.0303 135.5 89.1364 135.5 77.5C135.5 69.7727 134.682 63.2424 133.045 57.9091C131.439 52.5455 129.121 48.4848 126.091 45.7273C123.091 42.9394 119.515 41.5454 115.364 41.5454C109.091 41.5454 104.167 44.6364 100.591 50.8182C97.0152 57 95.2121 65.8939 95.1818 77.5C95.1818 85.2576 95.9848 91.8182 97.5909 97.1818C99.2273 102.515 101.545 106.561 104.545 109.318C107.545 112.045 111.152 113.409 115.364 113.409Z" fill="#EFEFEF"/>
<path d="M175.591 124.864C173.106 124.864 170.97 123.985 169.182 122.227C167.394 120.439 166.5 118.288 166.5 115.773C166.5 113.288 167.394 111.167 169.182 109.409C170.97 107.621 173.106 106.727 175.591 106.727C178.076 106.727 180.212 107.621 182 109.409C183.788 111.167 184.682 113.288 184.682 115.773C184.682 117.439 184.258 118.97 183.409 120.364C182.591 121.727 181.5 122.818 180.136 123.636C178.773 124.455 177.258 124.864 175.591 124.864ZM175.591 74.0455C173.106 74.0455 170.97 73.1515 169.182 71.3636C167.394 69.5758 166.5 67.4394 166.5 64.9545C166.5 62.4697 167.394 60.3485 169.182 58.5909C170.97 56.803 173.106 55.9091 175.591 55.9091C178.076 55.9091 180.212 56.803 182 58.5909C183.788 60.3485 184.682 62.4697 184.682 64.9545C184.682 66.6212 184.258 68.1515 183.409 69.5455C182.591 70.9091 181.5 72 180.136 72.8182C178.773 73.6364 177.258 74.0455 175.591 74.0455Z" fill="#EFEFEF"/>
<path d="M235.864 125.545C228.682 125.515 222.545 123.621 217.455 119.864C212.364 116.106 208.47 110.636 205.773 103.455C203.076 96.2727 201.727 87.6212 201.727 77.5C201.727 67.4091 203.076 58.7879 205.773 51.6364C208.5 44.4848 212.409 39.0303 217.5 35.2727C222.621 31.5151 228.742 29.6364 235.864 29.6364C242.985 29.6364 249.091 31.5303 254.182 35.3182C259.273 39.0758 263.167 44.5303 265.864 51.6818C268.591 58.803 269.955 67.4091 269.955 77.5C269.955 87.6515 268.606 96.3182 265.909 103.5C263.212 110.652 259.318 116.121 254.227 119.909C249.136 123.667 243.015 125.545 235.864 125.545ZM235.864 113.409C242.167 113.409 247.091 110.333 250.636 104.182C254.212 98.0303 256 89.1364 256 77.5C256 69.7727 255.182 63.2424 253.545 57.9091C251.939 52.5455 249.621 48.4848 246.591 45.7273C243.591 42.9394 240.015 41.5454 235.864 41.5454C229.591 41.5454 224.667 44.6364 221.091 50.8182C217.515 57 215.712 65.8939 215.682 77.5C215.682 85.2576 216.485 91.8182 218.091 97.1818C219.727 102.515 222.045 106.561 225.045 109.318C228.045 112.045 231.652 113.409 235.864 113.409Z" fill="#EFEFEF"/>
<path d="M318.864 125.545C311.682 125.515 305.545 123.621 300.455 119.864C295.364 116.106 291.47 110.636 288.773 103.455C286.076 96.2727 284.727 87.6212 284.727 77.5C284.727 67.4091 286.076 58.7879 288.773 51.6364C291.5 44.4848 295.409 39.0303 300.5 35.2727C305.621 31.5151 311.742 29.6364 318.864 29.6364C325.985 29.6364 332.091 31.5303 337.182 35.3182C342.273 39.0758 346.167 44.5303 348.864 51.6818C351.591 58.803 352.955 67.4091 352.955 77.5C352.955 87.6515 351.606 96.3182 348.909 103.5C346.212 110.652 342.318 116.121 337.227 119.909C332.136 123.667 326.015 125.545 318.864 125.545ZM318.864 113.409C325.167 113.409 330.091 110.333 333.636 104.182C337.212 98.0303 339 89.1364 339 77.5C339 69.7727 338.182 63.2424 336.545 57.9091C334.939 52.5455 332.621 48.4848 329.591 45.7273C326.591 42.9394 323.015 41.5454 318.864 41.5454C312.591 41.5454 307.667 44.6364 304.091 50.8182C300.515 57 298.712 65.8939 298.682 77.5C298.682 85.2576 299.485 91.8182 301.091 97.1818C302.727 102.515 305.045 106.561 308.045 109.318C311.045 112.045 314.652 113.409 318.864 113.409Z" fill="#EFEFEF"/>
</svg>
